<?xml version="1.0" standalone="no"?>
<!DOCTYPE svg PUBLIC "-//W3C//DTD SVG 20010904//EN"
 "http://www.w3.org/TR/2001/REC-SVG-20010904/DTD/svg10.dtd">
<svg version="1.0" xmlns="http://www.w3.org/2000/svg"
 width="192.000000pt" height="192.000000pt" viewBox="0 0 192.000000 192.000000"
 preserveAspectRatio="xMidYMid meet">
<metadata>
Created by potrace 1.11, written by Peter Selinger 2001-2013
</metadata>
<g transform="translate(0.000000,192.000000) scale(0.100000,-0.100000)"
fill="#000000" stroke="none">
<path d="M762 1899 c-293 -65 -538 -257 -667 -524 -65 -132 -86 -224 -90 -385
-5 -181 19 -297 91 -443 127 -257 359 -445 629 -511 103 -26 117 -28 220 -31
369 -11 720 200 890 535 28 54 87 222 81 228 -2 1 -93 4 -202 5 l-199 2 0 183
c0 101 4 186 9 189 4 3 96 6 202 6 107 0 194 2 194 3 0 1 -14 44 -30 94 -103
314 -338 539 -665 636 -120 35 -335 42 -463 13z m321 -374 c153 -32 298 -136
379 -271 67 -111 126 -99 -492 -99 -484 0 -540 2 -540 16 0 21 68 130 110 176
135 147 352 218 543 178z m427 -761 c0 -28 -77 -142 -135 -200 -121 -122 -235
-169 -410 -169 -121 0 -195 19 -290 74 -99 57 -191 159 -238 264 l-17 37 545
0 c300 0 545 -3 545 -6z"/>
</g>
</svg>
